<!DOCTYPE svg PUBLIC "-//W3C//DTD SVG 1.1//EN" "http://www.w3.org/Graphics/SVG/1.1/DTD/svg11.dtd">
<svg xmlns="http://www.w3.org/2000/svg" viewBox="0 0 1024 1024">
<path fill="#fbdc6c" stroke="#fbdc6c" d="M216 59.109C140.843 67.621 82.05 125.972 73.035 201c-.838 6.977-1.054 87.855-.814 304.5l.327 295 2.232 9.677c7.694 33.365 21.876 59.82 44.539 83.082 5.599 5.748 13.731 14.371 18.069 19.162 24.915 27.515 58.147 46.355 94.915 53.809l11.197 2.27h585l11.5-2.315c74.588-15.011 126.232-72.55 133.004-148.185.804-8.984 1.018-92.953.76-298.5l-.36-286-2.213-11.423c-5.518-28.474-18.484-56.186-36.299-77.577-5.888-7.07-45.201-45.741-52.464-51.608-22.005-17.775-50.942-29.693-81.21-33.448-13.269-1.646-570.825-1.965-585.218-.335" fill-rule="evenodd"/>
<path fill="#f284aa" stroke="#f284aa" d="M233.5 59.025c-25.335.773-33.236 1.961-50.358 7.569-61.24 20.061-104.417 74.613-110.182 139.212-2.002 22.44-.723 589.893 1.354 600.194 7.979 39.583 21.271 62.98 54.507 95.945 15.989 15.859 21.636 21.199 30.946 29.266 16.989 14.722 43.122 26.823 71.233 32.987l10.5 2.302h589l10.683-2.257c69.941-14.78 119.97-68.548 129.35-139.017 1.792-13.46 2.21-580.153.437-592.534-3.51-24.52-8.564-40.903-17.993-58.335-11.004-20.34-21.486-32.841-58.539-69.816C870.374 80.528 842.213 66.458 805 59.854c-7.381-1.31-530.86-2.069-571.5-.829M212 85.641c-55.127 8.464-99.72 51.036-111.731 106.667-2.788 12.912-2.738 600.666.052 613.692 11.721 54.726 55.178 97.092 109.179 106.436 13.817 2.391 581.325 2.374 595.574-.018 55.949-9.392 101.585-54.859 111.682-111.268 2.523-14.095 2.234-588.747-.304-603.515-9.477-55.151-50.485-97.702-106.952-110.976l-9-2.115-289.5-.181c-249.299-.155-290.819.022-299 1.278m487.074 83.536c-12.268 6.438-10.736 20.612 4.605 42.617l6.717 9.633.052 13.537c.06 15.733 1.513 20.907 9.052 32.245 13.209 19.864 40.241 28.902 63.71 21.301l5.709-1.85 9.791 4.554c18.77 8.73 31.723 10.84 37.96 6.183 10.705-7.992 9.085-18.939-6.215-41.994L822 242.662l-.012-8.581c-.05-36.012-33.791-62.817-68.303-54.262l-7.815 1.937-7.623-4.017c-18.232-9.605-31.612-12.529-39.173-8.562m15.912 23.573c1.162 2.063 2.995 4.875 4.072 6.25l1.957 2.5 3.164-3.457 3.163-3.458-5.921-2.789c-8.081-3.807-9.039-3.665-6.435.954m-231.519 7.303c-123.726 12.019-226.614 120.071-234.046 245.795-.347 5.858-.775 11.552-.951 12.652-.177 1.1-.355 2.563-.396 3.25-.053.891-2.4 1.25-8.173 1.25-9.014 0-13.777 1.635-16.394 5.629-2.165 3.305-3.588 79.567-1.597 85.599 2.466 7.471 5.456 8.772 20.167 8.772H255v21.68l-21.75 12.065a9895.478 9895.478 0 0 1-32.972 18.216C183.004 624.431 185 610.816 185 719.185c0 102.566-.353 96.996 6.357 100.18 3.166 1.502 28.681 1.635 314.576 1.635 338.305 0 315.249.397 319.899-5.514L828 812.73v-92.818c0-100.638.263-96.14-5.847-99.852-3.704-2.25-39.393-22.096-55.393-30.804l-8.74-4.756-.01-10.75L758 563h26.029l3.736-3.422 3.735-3.423.264-41.827c.256-40.567.203-41.928-1.772-45.138-2.786-4.53-7.334-6.19-16.96-6.19H765v-5.756c0-21.3-7.086-56.594-16.713-83.244-40.729-112.749-150.766-185.026-264.82-173.947m327.029 69.541c-3.192 4.185-2.962 4.54 5.033 7.797 7.451 3.035 7.467 3.011 3.021-4.31-4.676-7.696-4.802-7.751-8.054-3.487" fill-rule="evenodd"/>
<path fill="#3d3c3a" stroke="#3d3c3a" d="M217 59.681c-69.916 7.511-125.828 58.048-141.252 127.671L73.5 197.5v603l2.248 10.148C90.846 878.801 142.396 927.694 210 937.981c12.858 1.956 586.445 1.524 597.827-.451 74.021-12.843 127.617-70.347 135.175-145.03 2.035-20.113.792-588.941-1.309-599C927.11 123.687 879.215 75.25 811 61.328c-7.942-1.621-27.601-1.744-299.5-1.879-160.05-.079-292.575.025-294.5.232m5.5 24.437c-59.163 3.654-108.804 47.216-122.71 107.683l-2.231 9.699-.336 290c-.24 207.017-.02 293.148.771 301 5.971 59.332 47.625 105.765 107.506 119.841l9 2.115 288 .3c257.04.267 289.157.131 298.765-1.265 59.789-8.688 107.627-56.058 116.202-115.064 1.428-9.823 1.558-40.525 1.294-303.927l-.294-293-2.684-10.761c-13.805-55.361-56.47-96.051-110.283-105.18-9.356-1.588-558.651-2.945-583-1.441m475.799 85.842c-11.789 7.188-8.348 22.823 10.681 48.54 2.682 3.624 2.871 4.376 2.014 8-4.442 18.776 6.068 43.381 23.46 54.925 13.9 9.227 32.776 11.921 47.62 6.798l6.573-2.269 10.427 4.954c27.692 13.157 45.102 10 43.603-7.908-.618-7.393-3.866-14.322-13.013-27.761L822 243.978l-.017-7.239c-.094-39.019-34.801-65.888-71.983-55.728-4.45 1.216-4.623 1.169-15.5-4.263-17.75-8.864-29.258-11.022-36.201-6.788m16.19 22.79c1.438 2.613 3.539 5.872 4.67 7.243l2.055 2.493 3.381-3.993 3.38-3.993-6.718-3.25c-9.173-4.438-9.942-4.268-6.768 1.5m43.259 7.736c-7.705 2.12-21.748 12.976-21.748 16.813 0 3.129 45.475 41.644 52.23 44.236 2.255.865 8.122-7.319 10.739-14.979 9.077-26.568-14.862-53.322-41.221-46.07m-279.482.561C353.791 216.466 256.72 322.995 249.364 452.25l-.669 11.75h-8.897c-18.3 0-17.798-1.399-17.798 49.546 0 51.659-.932 49.454 20.904 49.454H255l-.03 11.25-.029 11.25-16.221 8.937A6665.16 6665.16 0 0 1 207 611.78c-8.525 4.624-16.85 9.723-18.5 11.332l-3 2.926-.267 92.231c-.283 97.965-.377 95.9 4.537 99.765 2.473 1.945 5.815 1.966 315.915 1.966 345.818 0 317.396.563 320.68-6.357 2.668-5.622 2.473-184.756-.206-189.149-1.278-2.096-5.588-5.024-14.246-9.677-6.827-3.669-21.638-11.843-32.913-18.165l-20.5-11.493-.283-11.08-.283-11.079h11.632c22.416 0 21.434 2.31 21.434-50.435v-41.533l-2.914-3.266c-2.862-3.208-3.099-3.275-13.25-3.766l-10.336-.5-.237-7.5c-3.6-114.14-84.248-217.74-192.62-247.442-26.865-7.362-67.918-10.665-93.377-7.511m2.812 25.118c-7.748 1.107-12.903 4.558-22.65 15.163-34.998 38.079-59.492 118.419-64.002 209.931l-.628 12.76 49.851-.26 49.851-.259.254-119.25.254-119.25-3.254.123c-1.79.068-6.144.537-9.676 1.042M519 344.135V463.5h100.283l-.163-9.5c-.609-35.437-7.964-83.494-18.286-119.474-12.606-43.942-29.019-75.811-49.776-96.649-11.659-11.704-9.298-10.585-26.308-12.47l-5.75-.637v119.365m67.581-102.385c32.05 48.677 52.786 120.551 56.908 197.25.31 5.775.805 13.65 1.099 17.5l.535 7 14.689-.22c8.078-.122 29.358-.234 47.288-.25l32.6-.03-.414-7.75c-4.954-92.817-60.13-174.703-142.491-211.471-12.536-5.596-12.567-5.602-10.214-2.029M420 242.429c-63.279 25.916-115.716 85.237-135.307 153.071-6.524 22.591-9.237 37.434-10.309 56.403L273.7 464H369l.021-8.25c.18-72.373 24.486-165.115 55.15-210.43 4.217-6.232 4.132-6.291-4.171-2.891m311 .308c0 7.007 10.868 20.46 19.751 24.449 3.884 1.744 15.421 3.815 14.249 2.558-.275-.295-4.831-4.071-10.124-8.39-5.294-4.32-12.831-10.713-16.75-14.207-5.544-4.942-7.126-5.921-7.126-4.41m78.59 27.306-2.676 4.044 6.521 2.956c10.777 4.887 11.116 4.377 4.183-6.293-3.76-5.787-4.616-5.862-8.028-.707M247 513.5V538h519v-49H247v24.5M280 679v116h161V646.971l3.423-3.736 3.422-3.735 57.395-.274 57.394-.273 3.419 2.303c6.177 4.163 5.916.627 5.932 80.494L572 795h161V563H280v116m-47.5-52.732-22 12.232-.256 78.25-.256 78.25H255v-90.5c0-49.775-.113-90.492-.25-90.482-.137.01-10.15 5.523-22.25 12.25M758 704.5V795h45V638.025l-6.75-3.409c-3.712-1.875-13.676-7.281-22.142-12.013-8.465-4.731-15.553-8.603-15.75-8.603-.197 0-.358 40.725-.358 90.5m-292 25V795h81V664h-81v65.5" fill-rule="evenodd"/>
</svg>