<!DOCTYPE svg PUBLIC "-//W3C//DTD SVG 1.1//EN" "http://www.w3.org/Graphics/SVG/1.1/DTD/svg11.dtd">
<svg xmlns="http://www.w3.org/2000/svg" viewBox="0 0 422 441">
<path fill="#fbdd66" stroke="#fbdd66" d="M70.286 18.468c-26.42 6.862-45.049 24.838-53.442 51.567L14.5 77.5l.001 133 .001 133 2.58 7.152c4.214 11.682 10.713 22.103 19.418 31.141 4.4 4.568 9.35 9.804 11 11.636 8.577 9.521 21.678 17.545 35.5 21.742l7.5 2.277 117 .333c119.143.339 126.372.16 138-3.416 26.464-8.139 46.125-30.32 51.919-58.573 2.305-11.236 2.4-251.337.104-263.333-3.027-15.823-13.091-34.839-22.375-42.28-.906-.726-1.524-1.772-1.373-2.324.151-.552-.166-.732-.704-.399-.538.332-3.361-1.933-6.274-5.035-2.914-3.101-7.637-7.562-10.496-9.914-2.86-2.351-4.997-4.552-4.75-4.891.247-.339.179-.421-.151-.182-.331.238-3.143-.855-6.25-2.43-3.108-1.575-9.25-4.133-13.65-5.684l-8-2.82-122-.213-122-.212-9.214 2.393m20.517 14.278c5.667.179 14.667.178 20-.001 5.333-.18.697-.326-10.303-.325-11 .001-15.364.148-9.697.326m45.447-.03c1.512.229 3.988.229 5.5 0s.275-.416-2.75-.416-4.262.187-2.75.416m29.5.031c6.188.175 16.313.175 22.5 0 6.188-.176 1.125-.319-11.25-.319s-17.437.143-11.25.319m36.5-.031c1.512.229 3.988.229 5.5 0s.275-.416-2.75-.416-4.262.187-2.75.416m27.5.024c3.438.196 9.063.196 12.5 0 3.438-.195.625-.355-6.25-.355s-9.687.16-6.25.355m27.063-.057c.721.289 1.584.253 1.916-.079.332-.332-.258-.568-1.312-.525-1.165.048-1.402.285-.604.604m16.937.023c1.238.238 3.262.238 4.5 0 1.238-.239.225-.434-2.25-.434s-3.488.195-2.25.434m35.514.012c1.52.229 3.77.223 5-.014 1.23-.237-.014-.425-2.764-.418-2.75.008-3.756.202-2.236.432m-18.651 47.465c.289.467.944.591 1.456.274 1.308-.808 1.161-1.124-.525-1.124-.801 0-1.22.383-.931.85m-95.8 11.5c.721.289 1.584.253 1.916-.079.332-.332-.258-.568-1.312-.525-1.165.048-1.402.285-.604.604m135.75 21.214c.812.812 4.373.808 3.871-.004-.26-.421-1.345-.7-2.411-.62-1.065.08-1.722.361-1.46.624m-144.779 11.841c2.905.203 7.405.201 10-.004 2.594-.206.216-.371-5.284-.369-5.5.003-7.622.171-4.716.373m26.978-.031c1.244.239 3.044.23 4-.02s-.062-.446-2.262-.435c-2.2.011-2.982.216-1.738.455m-108.89 6.043c-1.243 1.586-1.208 1.621.378.378 1.666-1.307 2.195-2.128 1.372-2.128-.207 0-.995.787-1.75 1.75M255.158 150c0 1.375.227 1.938.504 1.25.278-.687.278-1.812 0-2.5-.277-.687-.504-.125-.504 1.25M98 193c0 1.1.408 2 .906 2 .499 0 .671-.9.384-2-.288-1.1-.696-2-.907-2-.21 0-.383.9-.383 2m201.079.583c.048 1.165.285 1.402.604.605.289-.722.253-1.585-.079-1.917-.332-.332-.568.258-.525 1.312m-169.317 1.124c1.244.239 3.044.23 4-.02s-.062-.446-2.262-.435c-2.2.011-2.982.216-1.738.455m-57.683 13.876c.048 1.165.285 1.402.604.605.289-.722.253-1.585-.079-1.917-.332-.332-.568.258-.525 1.312M325.158 210c0 1.375.227 1.938.504 1.25.278-.687.278-1.812 0-2.5-.277-.687-.504-.125-.504 1.25m.152 19.5c.005 3.3.192 4.529.415 2.732.222-1.797.218-4.497-.01-6-.229-1.503-.411-.032-.405 3.268M313 249.393c0 .216.698.661 1.552.989.89.341 1.291.173.941-.393-.587-.951-2.493-1.406-2.493-.596M56.195 291.5c.02 1.65.244 2.204.498 1.231.254-.973.237-2.323-.037-3-.274-.677-.481.119-.461 1.769m44.884 47.083c.048 1.165.285 1.402.604.605.289-.722.253-1.585-.079-1.917-.332-.332-.568.258-.525 1.312M56.286 343.5c.008 2.75.202 3.756.432 2.236.229-1.52.223-3.77-.014-5-.237-1.23-.425.014-.418 2.764m284.909-1c.02 1.65.244 2.204.498 1.231.254-.973.237-2.323-.037-3-.274-.677-.481.119-.461 1.769M74.28 353.736c2.629.207 6.679.204 9-.005 2.321-.21.17-.379-4.78-.376-4.95.003-6.849.175-4.22.381m15.47-.03c1.237.238 3.263.238 4.5 0 1.237-.239.225-.434-2.25-.434s-3.487.195-2.25.434m23.519-.013c.973.254 2.323.237 3-.037.677-.274-.119-.481-1.769-.461-1.65.02-2.204.244-1.231.498m66.981.042c2.613.206 6.887.206 9.5 0 2.613-.206.475-.375-4.75-.375s-7.363.169-4.75.375m28 .011c5.912.177 15.588.177 21.5 0 5.912-.177 1.075-.321-10.75-.321s-16.662.144-10.75.321m49.512-.039c1.244.239 3.044.23 4-.02s-.062-.446-2.262-.435c-2.2.011-2.982.216-1.738.455m54.006.018c1.797.222 4.497.218 6-.01 1.503-.229.032-.411-3.268-.405-3.3.005-4.529.192-2.732.415m10.982-.063c.688.278 1.813.278 2.5 0 .688-.277.125-.504-1.25-.504s-1.937.227-1.25.504M81.813 386.683c.721.289 1.584.253 1.916-.079.332-.332-.258-.568-1.312-.525-1.165.048-1.402.285-.604.604m231.937-.021c.688.278 1.813.278 2.5 0 .688-.277.125-.504-1.25-.504s-1.937.227-1.25.504" fill-rule="evenodd"/>
<path fill="#f67fa9" stroke="#f67fa9" d="M69.479 18.942c-28.197 7.435-49.097 30.459-54.131 59.632-2.337 13.54-1.49 259.619.922 267.926 4.159 14.327 10.041 23.792 23.523 37.855 6.931 7.23 13.75 14.029 15.154 15.111 1.404 1.081 2.778 2.246 3.053 2.59 3.272 4.089 18.913 10.972 30.521 13.431 10.151 2.15 237.452 2.25 248.641.109 29.919-5.725 53.066-28.696 59.254-58.804 2.273-11.062 2.409-253.303.149-265.119-3.247-16.97-10.626-29.31-28.221-47.196-14.832-15.077-19.571-18.396-34.459-24.132L326.5 17.5l-125-.205c-118.825-.194-125.347-.113-132.021 1.647m4.9 14.471c-20.585 4.995-37.261 21.514-43.118 42.711C29.622 82.059 29.5 91.357 29.5 210.5v128l2.836 7.932c7.263 20.315 23.938 35.462 43.463 39.478 9.193 1.891 241.203 1.492 248.741-.428 19.371-4.933 36.101-21.208 42.131-40.982 1.732-5.681 1.829-12.863 1.829-135v-129l-2.728-8c-6.659-19.531-21.923-33.918-41.356-38.98-7.873-2.051-241.616-2.151-250.037-.107m207.638 33.86c-5.505 2.814-4.73 9.302 2.265 18.958 2.414 3.332 2.867 4.983 3.043 11.092.446 15.459 14.787 26.589 29.425 22.838 4.371-1.121 5.291-1.029 9.787.971 17.775 7.906 24.542.305 13.616-15.292-3.149-4.496-3.946-6.618-4.412-11.756-.698-7.704-4.416-14.208-10.605-18.553-4.048-2.842-4.921-3.038-13.977-3.136-8.116-.088-10.538-.513-15.159-2.659-7.231-3.357-10.952-4.013-13.983-2.463m7.58 11.621c1.625 2.752 2.003 2.935 3.325 1.612 1.691-1.691.85-2.896-2.791-3.999l-2.368-.717 1.834 3.104M177.5 79.985c-49.652 10.021-85.598 52.716-91.994 109.265l-.65 5.75-3.678.032c-7.388.064-7.639.74-7.99 21.493l-.311 18.443 2.516 2.516c2.023 2.023 3.504 2.516 7.562 2.516H88v4.339c0 3.501-.435 4.557-2.25 5.463-8.628 4.305-24.637 13.398-26.5 15.051L57 266.849v81.242l2.455 2.454L61.909 353h137.357c136.849 0 137.365-.008 139.545-2.039 2.182-2.033 2.189-2.163 2.189-42.566 0-24.955-.382-41.24-.994-42.385-.547-1.022-7.515-5.38-15.485-9.684l-14.49-7.826-.015-4.25L310 240h4.865c3.408 0 5.655-.621 7.5-2.073l2.635-2.072v-18.428c0-21.151-.451-22.427-7.92-22.427h-3.921l-.685-6.75c-7.329-72.223-68.89-121.603-134.974-108.265m11.64 13.037c-7.699 3.494-18.91 16.898-23.611 28.228l-1.556 3.75h35.121c33.031 0 35.081-.104 34.464-1.75-4.027-10.749-17.209-27.046-24.709-30.546-5.003-2.335-14.189-2.186-19.709.318m141.905 18.424c-1.495 1.801-1.55 1.717 2.205 3.33 3.183 1.367 3.429.665.915-2.604-1.618-2.103-1.919-2.173-3.12-.726m-214.33 26.26c-4.928 1.253-16.736 33.564-18.29 50.044l-.683 7.25h39.985l.698-10.75c.822-12.664 2.913-26.647 5.633-37.661 1.075-4.351 1.839-8.001 1.698-8.111-.603-.471-27.421-1.184-29.041-.772m145.941.079c-8.711.229-10.74.555-10.315 1.66 2.749 7.166 7.605 39.128 7.642 50.305L260 195h40.276l-.674-7.432c-1.074-11.86-5.196-26.093-11.096-38.318-2.987-6.187-5.785-11.275-6.218-11.305-5.112-.354-10.562-.398-19.632-.16m-111.989 69.882c-.367.366-.667 4.866-.667 10V227h98v-20h-48.333c-26.584 0-48.634.3-49 .667M150 290v50h9.25l9.25-.001.071-32.645.07-32.645 2.347-1.9c2.195-1.778 4.05-1.881 28.769-1.605l26.422.296 1.957 2.418c1.865 2.305 1.943 3.904 1.66 34.251l-.296 31.832h9.25L248 340V240h-98v50m-71.25-22.294L70 272.365V340h18v-38.5c0-21.175-.112-38.489-.25-38.477-.138.013-4.187 2.12-9 4.683M260 312v28h37v-56h-37v28m-159 14.75V340h37l-.004-13.25-.003-13.25H101v13.25" fill-rule="evenodd"/>
<path fill="#bc9e82" stroke="#bc9e82" d="M74.52 18.054C49.306 22.336 26.904 42.012 18.224 67.5l-2.724 8-.268 132-.269 132 2.575 9c7.364 25.736 27.475 45.174 53.962 52.155 10.871 2.865 245.182 2.856 256-.01 25.854-6.849 45.607-25.862 53.658-51.645l2.342-7.5v-264l-2.85-8.5c-7.966-23.752-24.33-40.298-48.15-48.684l-8-2.816-122.5-.146c-67.375-.08-124.741.235-127.48.7M71 33.886c-20.988 6.785-35.704 22.746-40.397 43.811-2.741 12.306-2.401 253.862.372 264.707 5.293 20.693 20.828 36.858 41.577 43.261 8.035 2.479 243.208 2.884 251.948.433 20.983-5.883 36.738-21.548 42.468-42.226 2.766-9.982 3.225-254.602.5-266.354-4.922-21.221-18.793-36.233-40.326-43.641-8.237-2.834-247.375-2.826-256.142.009M280.75 68.08c-3.888 2.265-1.994 10.593 4.168 18.327 2.57 3.226 3.005 4.486 2.492 7.223-1.595 8.499 4.004 19.1 12.54 23.746 5.302 2.886 15.982 3.881 19.646 1.83 1.152-.644 3.624-.073 8.273 1.911 17.31 7.386 22.47-.539 10.907-16.751-2.208-3.095-3.049-5.549-3.347-9.759-1.082-15.316-17.535-26.961-30.736-21.754-1.161.458-4.197-.454-8.5-2.555-6.775-3.309-12.226-4.092-15.443-2.218m6.255 7.67c.003.412 1.025 2.024 2.271 3.582 2.264 2.828 2.268 2.829 4.099.806 1.8-1.989 1.766-2.052-1.893-3.581-4.273-1.785-4.484-1.823-4.477-.807M186 79.034c-52.093 6.18-95.107 52.691-99.619 107.716l-.676 8.25h-3.63c-7.852 0-8.075.622-8.075 22.522C74 239.816 73.642 239 83.434 239H89v4.752c0 4.652-.1 4.804-4.75 7.247-7.208 3.786-18.301 10.034-22.5 12.673L58 266.028v41.864c0 34.214.25 42.071 1.369 42.999 2.39 1.984 277.6 1.568 279.591-.422 2.61-2.608 2.928-81.15.342-84.344-1.021-1.261-8.144-5.761-15.829-9.999L309.5 248.42v-8.92l5.965-.306c8.841-.454 8.535.325 8.535-21.76 0-21.858-.211-22.434-8.223-22.434H312l-.016-5.25c-.008-2.887-.913-9.525-2.011-14.75C296.749 112.052 245.045 72.029 186 79.034m118.5 2.501c-1.65.838-3.974 2.706-5.164 4.153l-2.164 2.629 5.967 5.554c8.239 7.667 17.075 14.189 18.807 13.88 2.51-.447 5.439-6.77 5.439-11.743 0-11.789-12.544-19.722-22.885-14.473m-111.142 9.419c-9.52 2.27-24.754 19.115-28.792 31.837l-.701 2.209h35.068c25.028 0 35.067-.318 35.067-1.11 0-2.001-5.93-12.258-10.968-18.972-8.981-11.967-18.757-16.567-29.674-13.964M158 99.33c-11.256 5.598-16.973 9.635-25.998 18.358l-7.502 7.251 13.069.031 13.07.03 3.361-7.648c1.848-4.206 5.52-10.956 8.16-15 2.64-4.044 4.696-7.329 4.57-7.301-.127.029-4.055 1.954-8.73 4.279m75.372-1.08c2.957 4.118 9.579 16.181 11.802 21.5l2.194 5.25h26.074l-6.471-6.54c-7.781-7.864-18.422-15.4-27.49-19.468-7.99-3.585-8.167-3.607-6.109-.742M296 101.048c0 3.102 6.817 9.531 11.466 10.815 3.302.912 5.911.83 4.451-.14-.229-.152-3.905-3.108-8.167-6.569-6.719-5.456-7.75-6.002-7.75-4.106m35.171 9.181c-1.934 1.934-1.342 3.458 1.861 4.784 3.956 1.639 4.223 1.162 1.534-2.734-1.699-2.463-2.499-2.946-3.395-2.05M110.745 145.75c-6.834 12.973-11.603 29.237-13.049 44.5l-.45 4.75h20.377c18.732 0 20.379-.141 20.397-1.75.048-4.3 2.989-30.286 3.989-35.25 1.422-7.057 3.988-17.829 4.674-19.615.439-1.144-2.238-1.385-15.399-1.385h-15.93l-4.609 8.75m46.404-.5c-3.463 13.259-7.104 37.23-7.139 47L150 195h98v-3.78c0-9.832-3.311-31.064-7.168-45.97l-2.135-8.25h-79.394l-2.154 8.25m94.937-5c2.268 7.786 5.909 29.302 7.022 41.5l1.209 13.25H300.81l-.528-6.25c-.932-11.036-6.009-28.516-11.763-40.5L283.118 137H251.14l.946 3.25M85.643 207.769c-.262.423-.508 4.923-.548 10L85.023 227H138v-20h-25.941c-14.268 0-26.155.346-26.416.769M150 217v10h98v-20h-98v10m110-.017V227h53.072l-.286-9.75-.286-9.75-26.25-.267-26.25-.266v10.016m-159 53.102V301H138.029l-.265-30.447-.264-30.446-18.25-.469-18.25-.469v30.916M150 290v51h19v-32.845c0-30.55.128-32.961 1.829-34.5 2.923-2.646 54.107-2.488 56.516.174 1.469 1.623 1.655 5.502 1.655 34.5V341h19V239h-98v51m116.25-50.202-6.25.297V272h37v-32l-6.75-.177c-12.205-.321-17.667-.327-24-.025M78.255 267.354 69.01 272.5l-.005 34.25L69 341h20v-39.5c0-21.725-.338-39.453-.75-39.396-.412.057-4.91 2.42-9.995 5.25M309 300.76c0 21.398.186 39.094.412 39.323.227.229 4.727.274 10 .098l9.588-.318v-67.42l-10-5.295-10-5.295v38.907m-48.577-16.85c-.233.233-.423 13.173-.423 28.757V341h37V283.487h-18.077c-9.942 0-18.267.191-18.5.423M181 312v28h36v-56h-36v28m-80.194 14.017c-.168 7.16-.156 13.46.027 14 .202.596 7.584.983 18.75.983H138v-28H101.111l-.305 13.017" fill-rule="evenodd"/>
<path fill="#060404" stroke="#060404" d="M77 17.977C47.994 21.93 24.748 43.394 16.867 73.5c-2.852 10.893-2.836 261.137.017 272.118 6.919 26.634 26.733 46.964 52.616 53.983 6.699 1.817 12.333 1.899 131 1.899h124l8.761-3.135c24.481-8.759 41.666-27.451 48.142-52.365 1.553-5.973 1.665-17.209 1.387-138.5l-.302-132-2.708-8.009c-7.774-22.994-25.55-40.124-49.613-47.809-6.637-2.12-7.205-2.13-127.167-2.292-66.275-.089-122.975.175-126 .587m1 13.702C54.904 35.648 34.846 55.369 29.869 79c-2.042 9.694-2.021 251.455.022 261 4.889 22.84 21.94 40.553 44.756 46.496 9.088 2.367 239.716 2.251 249.289-.126 23.863-5.924 40.617-24.664 45.036-50.375 2.023-11.77.834-253.082-1.281-259.995-6.582-21.512-19.777-35.428-40.605-42.823-4.131-1.466-16.586-1.643-125.586-1.778-66.55-.082-122.125.043-123.5.28m202.747 37.048c-3.287 3.632-1.978 8.845 4.44 17.677 2.434 3.349 2.872 4.753 2.406 7.702-1.321 8.351 5.532 20.229 13.851 24.008 4.536 2.06 14.508 2.517 17.696.811 1.557-.833 2.957-.63 6.217.903 18.567 8.727 25.532 1.124 13.514-14.754-3.3-4.36-3.871-5.854-3.871-10.128 0-14.56-16.54-26.873-29.486-21.951-2.163.822-3.656.453-8.618-2.129-7.705-4.01-13.733-4.809-16.149-2.139M287 75.596c0 1.228 3.465 6.404 4.287 6.404.944 0 3.713-2.538 3.713-3.403 0-.708-5.583-3.597-6.95-3.597-.578 0-1.05.268-1.05.596M183.5 79.56c-1.1.253-4.475.961-7.5 1.574-47.083 9.544-84.837 54.274-89.465 105.994l-.683 7.629-4.615.52C74.2 196.07 74 196.684 74 217.536c0 21.37.041 21.464 9.329 21.464H89V248.623l-8.25 4.579a1362.443 1362.443 0 0 1-14.25 7.796c-3.3 1.768-6.562 3.672-7.25 4.231-2.308 1.876-1.756 83.003.579 85.116 2.5 2.263 275.447 2.521 278.421.263 1.617-1.228 1.75-4.481 1.75-42.9v-41.572l-2.75-1.908c-2.505-1.737-18.825-10.763-25.5-14.102-2.436-1.219-2.75-1.933-2.75-6.251V239h5.845c9.112 0 9.155-.104 9.155-22.206 0-20.886.066-20.694-7.394-21.535l-4.393-.495-.7-7.632c-4.5-49.047-37.416-90.92-81.962-104.264-9.749-2.921-38.692-5-46.051-3.308m124.31.154c-1.479.224-4.629 2.176-7 4.337l-4.31 3.929 6.054 5.801c8.536 8.178 18.291 15.492 19.86 14.89.731-.28 2.342-2.602 3.58-5.159 6.087-12.574-4.117-25.929-18.184-23.798M189 92.226c-7.017 3.209-15.862 12.963-21.295 23.483-2.588 5.01-4.705 9.375-4.705 9.7 0 .924 70.819.693 71.392-.234.683-1.105-5.737-13.514-9.985-19.302C213.923 91.591 201.152 86.669 189 92.226m-27.029 4.776c-6.106 2.415-13.328 6.499-19.971 11.294-6.451 4.657-18.083 15.76-17.5 16.704.222.36 6.201.741 13.285.847l12.881.192 3.788-8.5c2.083-4.675 5.761-11.505 8.174-15.179 5.139-7.824 5.159-7.659-.657-5.358M231 95.411c0 .199 1.787 3.037 3.971 6.308s6.009 10.072 8.5 15.114l4.528 9.167h12.442c6.842 0 12.687-.398 12.988-.885 1.581-2.558-22.397-21.572-33.004-26.172-7.022-3.045-9.425-3.945-9.425-3.532m64 3.688c0 5.536 7.266 12.489 14.034 13.428l4.466.62-3-2.657C296.56 98.146 295 96.999 295 99.099m35.171 11.998c-.72 1.154-1.166 2.21-.99 2.346.563.44 7.114 3.557 7.473 3.557.965 0 .116-2.515-1.722-5.096-2.465-3.461-3.042-3.559-4.761-.807M114.66 137.75c-8.876 14.545-15.194 33.318-17.161 51l-.695 6.25h41.037l.521-2.75c.286-1.512.802-6.8 1.147-11.75.697-10.017 3.645-28.073 5.958-36.5.83-3.025 1.515-5.838 1.521-6.25.016-.98-31.729-.98-32.328 0m42.799 5c-.878 3.162-1.822 6.425-2.098 7.25-1.483 4.427-4.348 23.954-4.952 33.75l-.694 11.25h99.444l-.527-2.75c-.29-1.512-.802-6.575-1.137-11.25-.929-12.953-3.684-28.016-7.178-39.25l-1.478-4.75h-79.783l-1.597 5.75m94.124-3.025c.349 1.526 1.233 5.025 1.966 7.775 1.782 6.689 4.042 21.385 5.498 35.75.734 7.237 1.626 11.788 2.322 11.848.622.054 9.84.167 20.484.25l19.353.152-.67-7c-1.298-13.55-6.722-31.557-12.968-43.048l-4.322-7.952-16.149-.275-16.148-.275.634 2.775M85 217.5V228h53v-21H85v10.5m64.215-.25.285 10.25h99l.285-10.25.285-10.25H148.93l.285 10.25M260 217.5V228h53v-21h-53v10.5m-159.764 52.75.264 31.25 18.75.272 18.75.272V239H99.972l.264 31.25m49.431-30.583c-.367.366-.667 23.316-.667 51V341h19.899l.3-33.082c.286-31.405.399-33.153 2.242-34.5 2.848-2.081 52.27-2.08 55.118 0 1.843 1.347 1.956 3.087 2.23 34.5l.289 33.082H249V239h-49.333c-27.134 0-49.634.3-50 .667M260 255.5V272h38v-33h-38v16.5m-177.5 9.305a687.185 687.185 0 0 0-9.25 5.144L69 272.368V341h20v-39.5c0-21.725-.338-39.482-.75-39.46-.412.022-3 1.266-5.75 2.765M309 301.393V341h20V272.105l-8.25-4.492c-4.538-2.471-9.038-4.793-10-5.16-1.648-.628-1.75 1.632-1.75 38.94m-128.312-17.748c-.378.379-.688 13.438-.688 29.022V341h38.031l-.266-28.75-.265-28.75-18.062-.272c-9.933-.149-18.371.038-18.75.417M260 312v29h38v-58h-38v29m-160 15v14h38v-28h-38v14" fill-rule="evenodd"/>
</svg>