<svg xmlns="http://www.w3.org/2000/svg" viewBox="0 100 300 100">
    <g fill="#2F190E" transform="matrix(1.6290968656539917,0,0,1.6290968656539917,111.1437394232374,133.40764846500113)">
        <path d="M1.29 14.08L5.26 14.08C8.23 14.08 10.37 12.01 10.37 9.18C10.37 6.34 8.25 4.28 5.31 4.28L1.29 4.28ZM2.94 12.60L2.94 5.77L5.28 5.77C7.21 5.77 8.71 7.20 8.71 9.20C8.71 11.19 7.25 12.60 5.35 12.60ZM11.90 4.51C11.90 5.07 12.31 5.47 12.84 5.47C13.37 5.47 13.78 5.07 13.78 4.51C13.78 3.93 13.37 3.53 12.84 3.53C12.31 3.53 11.90 3.93 11.90 4.51ZM12.04 14.08L13.64 14.08L13.64 6.64L12.04 6.64ZM15.32 10.12C15.32 12.26 16.66 13.72 18.68 13.72C19.80 13.72 20.64 13.27 21.14 12.46L21.14 13.40C21.14 14.69 20.22 15.51 18.80 15.51C17.89 15.51 17.16 15.22 16.46 14.70L15.78 15.86C16.69 16.48 17.71 16.84 18.87 16.84C21.21 16.84 22.74 15.50 22.74 13.36L22.74 6.64L21.14 6.64L21.14 7.84C20.62 7.03 19.77 6.57 18.62 6.58C16.65 6.59 15.32 8.02 15.32 10.12ZM16.83 10.16C16.84 8.83 17.72 7.88 19.00 7.88C20.26 7.88 21.14 8.82 21.14 10.16C21.14 11.51 20.26 12.46 19.00 12.46C17.71 12.46 16.84 11.51 16.83 10.16ZM24.84 4.51C24.84 5.07 25.24 5.47 25.77 5.47C26.31 5.47 26.71 5.07 26.71 4.51C26.71 3.93 26.31 3.53 25.77 3.53C25.24 3.53 24.84 3.93 24.84 4.51ZM24.98 14.08L26.57 14.08L26.57 6.64L24.98 6.64ZM28.20 8.12L29.25 8.12L29.25 11.98C29.25 13.51 30.21 14.15 31.33 14.15C31.96 14.15 32.58 13.96 33.17 13.61L32.76 12.38C32.33 12.59 31.98 12.70 31.64 12.70C31.14 12.70 30.84 12.46 30.84 11.69L30.84 8.12L33.04 8.12L33.04 6.92L30.84 6.92L30.84 4.87L29.25 4.87L29.25 6.92L28.20 6.92ZM34.03 11.84C34.03 13.16 35.04 14.15 36.65 14.15C37.73 14.15 38.58 13.83 39.12 13.17L39.12 14.08L40.70 14.08L40.68 9.20C40.67 7.56 39.59 6.58 37.67 6.58C36.26 6.58 35.50 6.90 34.47 7.52L35.13 8.64C35.87 8.13 36.61 7.88 37.32 7.88C38.50 7.88 39.10 8.44 39.10 9.38L39.10 9.60L36.85 9.60C35.06 9.62 34.03 10.49 34.03 11.84ZM35.55 11.77C35.55 11.06 36.04 10.78 37.09 10.78L39.10 10.78L39.10 11.47C39.02 12.28 38.14 12.88 36.99 12.88C36.09 12.88 35.55 12.45 35.55 11.77ZM42.92 14.08L44.53 14.08L44.53 3.70L42.92 3.70ZM50.69 14.08L54.67 14.08C57.64 14.08 59.78 12.01 59.78 9.18C59.78 6.34 57.65 4.28 54.71 4.28L50.69 4.28ZM52.35 12.60L52.35 5.77L54.68 5.77C56.62 5.77 58.11 7.20 58.11 9.20C58.11 11.19 56.66 12.60 54.75 12.60ZM60.75 10.36C60.75 12.60 62.33 14.14 64.64 14.14C66.93 14.14 68.52 12.60 68.52 10.36C68.52 8.11 66.93 6.58 64.64 6.58C62.33 6.58 60.75 8.11 60.75 10.36ZM62.36 10.37C62.36 8.95 63.29 7.97 64.64 7.97C65.97 7.97 66.91 8.95 66.91 10.37C66.91 11.82 65.97 12.80 64.64 12.80C63.29 12.80 62.36 11.82 62.36 10.37ZM70.20 14.08L71.79 14.08L71.79 10.40C71.79 9.10 72.58 8.12 73.86 8.08C74.96 8.08 75.61 8.76 75.61 9.90L75.61 14.08L77.22 14.08L77.22 10.40C77.22 9.10 77.99 8.12 79.27 8.08C80.36 8.08 81.03 8.76 81.03 9.90L81.03 14.08L82.64 14.08L82.64 9.45C82.64 7.67 81.62 6.58 79.91 6.58C78.55 6.58 77.56 7.13 77.08 8.37C76.73 7.24 75.82 6.58 74.49 6.58C73.26 6.58 72.31 7.03 71.79 8.08L71.79 6.64L70.20 6.64ZM84.10 10.37C84.10 12.61 85.61 14.14 87.91 14.14C89.19 14.14 90.26 13.68 90.99 12.88L90.13 11.97C89.59 12.53 88.84 12.84 88.03 12.84C86.86 12.84 85.97 12.12 85.72 10.98L91.35 10.98C91.55 8.29 90.48 6.58 87.86 6.58C85.65 6.59 84.10 8.12 84.10 10.37ZM85.69 9.80C85.88 8.61 86.70 7.87 87.88 7.87C89.10 7.87 89.89 8.60 89.95 9.80Z"></path></g><defs data-v-fde0c5aa=""><!----></defs><g data-v-fde0c5aa="" id="b8c3de88-f56f-40f5-981b-2f92952c89a4" stroke="none" fill="#2F190E" transform="matrix(0.6275549530982971,0,0,0.6275549530982971,38.74489011926837,118.56828297914166)"><path d="M22.361 48.612L14.027 61h16.217zM41.707 48.612L33.372 61h16.22zM61.054 48.612L52.719 61h16.218zM80.397 48.612L72.066 61h16.217zM4.024 76h16.217l-7.883-12.388zM23.443 76h16.219l-7.884-12.388zM42.862 76h16.219l-7.885-12.388zM62.281 76H78.5l-7.884-12.389zM81.702 76H97.92l-7.885-12.388zM60.363 44.388L68.698 32H52.48zM40.864 44.389L49.199 32H32.98zM78.609 47H62.393l7.883 12.389zM81.739 47l7.882 12.123 4.208-6.121C92.875 50.87 91.771 49 90.531 47h-8.792zM59.266 47H43.045l7.886 12.388zM39.917 47H23.7l7.885 12.388zM52.572 63l7.883 12.388L68.791 63zM71.992 63l7.885 12.388L88.211 63zM33.152 63l7.885 12.388L49.372 63zM13.733 63l7.885 12.388L29.951 63zM97.976 73.719c.005-.318.024-.336.024-.655 0-3.205-.32-7.064-.92-9.064h-5.668l6.564 9.719zM23.231 45H39.45l-7.885-12.389zM42.729 45h16.22l-7.885-12.389zM62.229 45h16.219l-7.885-12.389zM2.092 75.032l.106.761L10.531 64H2.919C2.321 66 2 69.563 2 72.767c0 .96.037 1.318.092 2.265zM10.897 61l-4.843-7.611C4.981 55.827 4.101 58 3.442 61h7.455zM7.06 50.988l5.176 8.268L20.571 47H9.47c-.872 1-1.678 2.526-2.41 3.988zM11.05 45h8.9l-3.808-5.984C14.285 40.864 12.586 43 11.05 45zM94.925 55.778L91.412 61h5.146c-.447-2-.995-3.524-1.633-5.222zM21.366 44.73L29.7 33h-5.471c-2.572 1-4.975 3.188-7.183 5.274l4.32 6.456zM30.432 28.344c-.321.144-.644.284-.961.435l.325.511.636-.946zM31.981 30h16.22l-3.137-5.253c-4.019.41-7.891 1.479-11.555 2.819L31.981 30zM49.938 29.29l3.358-4.993a48.601 48.601 0 0 0-3.295-.125c-1.091 0-2.17.05-3.244.121l3.181 4.997zM52.123 30h16.22l-1.311-2.384c-3.683-1.398-7.581-2.194-11.633-2.648L52.123 30zM70.448 28.741c-.333-.157-.67-.306-1.008-.455l.64 1.004.368-.549zM75.771 33h-3.793l7.885 11.73 3.989-5.6C81.406 36.697 78.693 34 75.771 33zM89.504 46c-1.285-2-2.695-3.623-4.224-5.278L81.729 46h7.775z">
        </path>
    </g>
</svg>
